ISO-10303-21;
HEADER;
/* Generated by software containing ST-Developer
 * from STEP Tools, Inc. (www.steptools.com) 
 */

FILE_DESCRIPTION(
/* description */ (''),
/* implementation_level */ '2;1');

FILE_NAME(
/* name */ 'EchoBottomCase.step',
/* time_stamp */ '2026-08-14T20:11:01+01:00',
/* author */ (''),
/* organization */ (''),
/* preprocessor_version */ 'ST-DEVELOPER v20.1',
/* originating_system */ 'Autodesk Translation Framework v15.8.0.0',
/* authorisation */ '');

FILE_SCHEMA (('AUTOMOTIVE_DESIGN { 1 0 10303 214 3 1 1 }'));
ENDSEC;

DATA;
#10=MECHANICAL_DESIGN_GEOMETRIC_PRESENTATION_REPRESENTATION('',(#13),#881);
#11=SHAPE_REPRESENTATION_RELATIONSHIP('SRR','None',#888,#12);
#12=ADVANCED_BREP_SHAPE_REPRESENTATION('',(#14),#880);
#13=STYLED_ITEM('',(#897),#14);
#14=MANIFOLD_SOLID_BREP('BottomCase',#513);
#15=FACE_BOUND('',#92,.T.);
#16=FACE_BOUND('',#99,.T.);
#17=FACE_BOUND('',#103,.T.);
#18=CIRCLE('',#529,1.75);
#19=CIRCLE('',#530,1.75);
#20=CIRCLE('',#533,1.75);
#21=CIRCLE('',#534,1.75);
#22=CIRCLE('',#537,1.75);
#23=CIRCLE('',#538,1.75);
#24=CIRCLE('',#541,1.75);
#25=CIRCLE('',#542,1.75);
#26=CIRCLE('',#545,5.49999967883402);
#27=CIRCLE('',#546,5.49999967883402);
#28=CIRCLE('',#549,5.49999967890003);
#29=CIRCLE('',#550,5.49999967890003);
#30=CIRCLE('',#553,5.49999967883399);
#31=CIRCLE('',#554,5.49999967883399);
#32=CIRCLE('',#557,5.49999967883);
#33=CIRCLE('',#558,5.49999967883);
#34=CIRCLE('',#560,7.49999967883001);
#35=CIRCLE('',#561,7.499999678834);
#36=CIRCLE('',#562,7.499999678834);
#37=CIRCLE('',#563,7.49999967883401);
#38=CIRCLE('',#566,7.49999967884);
#39=CIRCLE('',#569,7.49999967890002);
#40=CIRCLE('',#572,7.49999967883401);
#41=CIRCLE('',#575,7.49999967883);
#42=CYLINDRICAL_SURFACE('',#528,1.75);
#43=CYLINDRICAL_SURFACE('',#532,1.75);
#44=CYLINDRICAL_SURFACE('',#536,1.75);
#45=CYLINDRICAL_SURFACE('',#540,1.75);
#46=CYLINDRICAL_SURFACE('',#544,5.49999967883402);
#47=CYLINDRICAL_SURFACE('',#548,5.49999967890003);
#48=CYLINDRICAL_SURFACE('',#552,5.49999967883399);
#49=CYLINDRICAL_SURFACE('',#556,5.49999967883);
#50=CYLINDRICAL_SURFACE('',#565,7.49999967884);
#51=CYLINDRICAL_SURFACE('',#568,7.49999967890002);
#52=CYLINDRICAL_SURFACE('',#571,7.49999967883401);
#53=CYLINDRICAL_SURFACE('',#574,7.49999967883);
#54=FACE_OUTER_BOUND('',#81,.T.);
#55=FACE_OUTER_BOUND('',#82,.T.);
#56=FACE_OUTER_BOUND('',#83,.T.);
#57=FACE_OUTER_BOUND('',#84,.T.);
#58=FACE_OUTER_BOUND('',#85,.T.);
#59=FACE_OUTER_BOUND('',#86,.T.);
#60=FACE_OUTER_BOUND('',#87,.T.);
#61=FACE_OUTER_BOUND('',#88,.T.);
#62=FACE_OUTER_BOUND('',#89,.T.);
#63=FACE_OUTER_BOUND('',#90,.T.);
#64=FACE_OUTER_BOUND('',#91,.T.);
#65=FACE_OUTER_BOUND('',#93,.T.);
#66=FACE_OUTER_BOUND('',#94,.T.);
#67=FACE_OUTER_BOUND('',#95,.T.);
#68=FACE_OUTER_BOUND('',#96,.T.);
#69=FACE_OUTER_BOUND('',#97,.T.);
#70=FACE_OUTER_BOUND('',#98,.T.);
#71=FACE_OUTER_BOUND('',#100,.T.);
#72=FACE_OUTER_BOUND('',#101,.T.);
#73=FACE_OUTER_BOUND('',#102,.T.);
#74=FACE_OUTER_BOUND('',#104,.T.);
#75=FACE_OUTER_BOUND('',#105,.T.);
#76=FACE_OUTER_BOUND('',#106,.T.);
#77=FACE_OUTER_BOUND('',#107,.T.);
#78=FACE_OUTER_BOUND('',#108,.T.);
#79=FACE_OUTER_BOUND('',#109,.T.);
#80=FACE_OUTER_BOUND('',#110,.T.);
#81=EDGE_LOOP('',(#327,#328,#329,#330));
#82=EDGE_LOOP('',(#331,#332,#333,#334));
#83=EDGE_LOOP('',(#335,#336,#337,#338));
#84=EDGE_LOOP('',(#339,#340,#341,#342));
#85=EDGE_LOOP('',(#343,#344,#345,#346));
#86=EDGE_LOOP('',(#347,#348,#349,#350));
#87=EDGE_LOOP('',(#351,#352,#353,#354));
#88=EDGE_LOOP('',(#355,#356,#357,#358));
#89=EDGE_LOOP('',(#359,#360,#361,#362));
#90=EDGE_LOOP('',(#363,#364,#365,#366));
#91=EDGE_LOOP('',(#367,#368,#369,#370));
#92=EDGE_LOOP('',(#371,#372,#373,#374,#375,#376,#377,#378));
#93=EDGE_LOOP('',(#379,#380,#381,#382));
#94=EDGE_LOOP('',(#383,#384,#385,#386));
#95=EDGE_LOOP('',(#387,#388,#389,#390));
#96=EDGE_LOOP('',(#391,#392,#393,#394));
#97=EDGE_LOOP('',(#395,#396,#397,#398));
#98=EDGE_LOOP('',(#399,#400,#401,#402,#403,#404,#405,#406));
#99=EDGE_LOOP('',(#407,#408,#409,#410,#411,#412,#413,#414));
#100=EDGE_LOOP('',(#415,#416,#417,#418));
#101=EDGE_LOOP('',(#419,#420,#421,#422));
#102=EDGE_LOOP('',(#423,#424,#425,#426));
#103=EDGE_LOOP('',(#427,#428,#429,#430,#431,#432,#433,#434));
#104=EDGE_LOOP('',(#435,#436,#437,#438));
#105=EDGE_LOOP('',(#439,#440,#441,#442));
#106=EDGE_LOOP('',(#443,#444,#445,#446));
#107=EDGE_LOOP('',(#447,#448,#449,#450));
#108=EDGE_LOOP('',(#451,#452,#453,#454));
#109=EDGE_LOOP('',(#455,#456,#457,#458,#459,#460,#461,#462));
#110=EDGE_LOOP('',(#463,#464,#465,#466,#467,#468,#469,#470));
#111=LINE('',#734,#159);
#112=LINE('',#736,#160);
#113=LINE('',#738,#161);
#114=LINE('',#739,#162);
#115=LINE('',#744,#163);
#116=LINE('',#748,#164);
#117=LINE('',#750,#165);
#118=LINE('',#751,#166);
#119=LINE('',#756,#167);
#120=LINE('',#760,#168);
#121=LINE('',#762,#169);
#122=LINE('',#763,#170);
#123=LINE('',#768,#171);
#124=LINE('',#772,#172);
#125=LINE('',#774,#173);
#126=LINE('',#775,#174);
#127=LINE('',#782,#175);
#128=LINE('',#784,#176);
#129=LINE('',#786,#177);
#130=LINE('',#787,#178);
#131=LINE('',#793,#179);
#132=LINE('',#796,#180);
#133=LINE('',#798,#181);
#134=LINE('',#799,#182);
#135=LINE('',#805,#183);
#136=LINE('',#808,#184);
#137=LINE('',#810,#185);
#138=LINE('',#811,#186);
#139=LINE('',#817,#187);
#140=LINE('',#820,#188);
#141=LINE('',#822,#189);
#142=LINE('',#823,#190);
#143=LINE('',#830,#191);
#144=LINE('',#834,#192);
#145=LINE('',#838,#193);
#146=LINE('',#842,#194);
#147=LINE('',#847,#195);
#148=LINE('',#848,#196);
#149=LINE('',#849,#197);
#150=LINE('',#853,#198);
#151=LINE('',#856,#199);
#152=LINE('',#857,#200);
#153=LINE('',#861,#201);
#154=LINE('',#864,#202);
#155=LINE('',#865,#203);
#156=LINE('',#869,#204);
#157=LINE('',#872,#205);
#158=LINE('',#873,#206);
#159=VECTOR('',#582,10.);
#160=VECTOR('',#583,10.);
#161=VECTOR('',#584,10.);
#162=VECTOR('',#585,10.);
#163=VECTOR('',#590,10.);
#164=VECTOR('',#595,10.);
#165=VECTOR('',#596,10.);
#166=VECTOR('',#597,10.);
#167=VECTOR('',#602,10.);
#168=VECTOR('',#607,10.);
#169=VECTOR('',#608,10.);
#170=VECTOR('',#609,10.);
#171=VECTOR('',#614,10.);
#172=VECTOR('',#619,10.);
#173=VECTOR('',#620,10.);
#174=VECTOR('',#621,10.);
#175=VECTOR('',#630,10.);
#176=VECTOR('',#631,10.);
#177=VECTOR('',#632,10.);
#178=VECTOR('',#633,10.);
#179=VECTOR('',#640,10.);
#180=VECTOR('',#643,10.);
#181=VECTOR('',#644,10.);
#182=VECTOR('',#645,10.);
#183=VECTOR('',#652,10.);
#184=VECTOR('',#655,10.);
#185=VECTOR('',#656,10.);
#186=VECTOR('',#657,10.);
#187=VECTOR('',#664,10.);
#188=VECTOR('',#667,10.);
#189=VECTOR('',#668,10.);
#190=VECTOR('',#669,10.);
#191=VECTOR('',#678,10.);
#192=VECTOR('',#681,10.);
#193=VECTOR('',#684,10.);
#194=VECTOR('',#687,10.);
#195=VECTOR('',#692,10.);
#196=VECTOR('',#693,10.);
#197=VECTOR('',#694,10.);
#198=VECTOR('',#699,10.);
#199=VECTOR('',#702,10.);
#200=VECTOR('',#703,10.);
#201=VECTOR('',#708,10.);
#202=VECTOR('',#711,10.);
#203=VECTOR('',#712,10.);
#204=VECTOR('',#717,10.);
#205=VECTOR('',#720,10.);
#206=VECTOR('',#721,10.);
#207=VERTEX_POINT('',#732);
#208=VERTEX_POINT('',#733);
#209=VERTEX_POINT('',#735);
#210=VERTEX_POINT('',#737);
#211=VERTEX_POINT('',#741);
#212=VERTEX_POINT('',#743);
#213=VERTEX_POINT('',#747);
#214=VERTEX_POINT('',#749);
#215=VERTEX_POINT('',#753);
#216=VERTEX_POINT('',#755);
#217=VERTEX_POINT('',#759);
#218=VERTEX_POINT('',#761);
#219=VERTEX_POINT('',#765);
#220=VERTEX_POINT('',#767);
#221=VERTEX_POINT('',#771);
#222=VERTEX_POINT('',#773);
#223=VERTEX_POINT('',#780);
#224=VERTEX_POINT('',#781);
#225=VERTEX_POINT('',#783);
#226=VERTEX_POINT('',#785);
#227=VERTEX_POINT('',#789);
#228=VERTEX_POINT('',#791);
#229=VERTEX_POINT('',#795);
#230=VERTEX_POINT('',#797);
#231=VERTEX_POINT('',#801);
#232=VERTEX_POINT('',#803);
#233=VERTEX_POINT('',#807);
#234=VERTEX_POINT('',#809);
#235=VERTEX_POINT('',#813);
#236=VERTEX_POINT('',#815);
#237=VERTEX_POINT('',#819);
#238=VERTEX_POINT('',#821);
#239=VERTEX_POINT('',#828);
#240=VERTEX_POINT('',#829);
#241=VERTEX_POINT('',#831);
#242=VERTEX_POINT('',#833);
#243=VERTEX_POINT('',#835);
#244=VERTEX_POINT('',#837);
#245=VERTEX_POINT('',#839);
#246=VERTEX_POINT('',#841);
#247=VERTEX_POINT('',#845);
#248=VERTEX_POINT('',#846);
#249=VERTEX_POINT('',#851);
#250=VERTEX_POINT('',#855);
#251=VERTEX_POINT('',#859);
#252=VERTEX_POINT('',#863);
#253=VERTEX_POINT('',#867);
#254=VERTEX_POINT('',#871);
#255=EDGE_CURVE('',#207,#208,#111,.T.);
#256=EDGE_CURVE('',#207,#209,#112,.T.);
#257=EDGE_CURVE('',#210,#209,#113,.T.);
#258=EDGE_CURVE('',#208,#210,#114,.T.);
#259=EDGE_CURVE('',#211,#207,#18,.T.);
#260=EDGE_CURVE('',#211,#212,#115,.T.);
#261=EDGE_CURVE('',#209,#212,#19,.T.);
#262=EDGE_CURVE('',#213,#211,#116,.T.);
#263=EDGE_CURVE('',#213,#214,#117,.T.);
#264=EDGE_CURVE('',#212,#214,#118,.T.);
#265=EDGE_CURVE('',#215,#213,#20,.T.);
#266=EDGE_CURVE('',#215,#216,#119,.T.);
#267=EDGE_CURVE('',#214,#216,#21,.T.);
#268=EDGE_CURVE('',#217,#215,#120,.T.);
#269=EDGE_CURVE('',#217,#218,#121,.T.);
#270=EDGE_CURVE('',#216,#218,#122,.T.);
#271=EDGE_CURVE('',#219,#217,#22,.T.);
#272=EDGE_CURVE('',#219,#220,#123,.T.);
#273=EDGE_CURVE('',#218,#220,#23,.T.);
#274=EDGE_CURVE('',#221,#219,#124,.T.);
#275=EDGE_CURVE('',#221,#222,#125,.T.);
#276=EDGE_CURVE('',#220,#222,#126,.T.);
#277=EDGE_CURVE('',#208,#221,#24,.T.);
#278=EDGE_CURVE('',#222,#210,#25,.T.);
#279=EDGE_CURVE('',#223,#224,#127,.T.);
#280=EDGE_CURVE('',#223,#225,#128,.T.);
#281=EDGE_CURVE('',#226,#225,#129,.T.);
#282=EDGE_CURVE('',#224,#226,#130,.T.);
#283=EDGE_CURVE('',#224,#227,#26,.T.);
#284=EDGE_CURVE('',#228,#226,#27,.T.);
#285=EDGE_CURVE('',#227,#228,#131,.T.);
#286=EDGE_CURVE('',#227,#229,#132,.T.);
#287=EDGE_CURVE('',#230,#228,#133,.T.);
#288=EDGE_CURVE('',#229,#230,#134,.T.);
#289=EDGE_CURVE('',#229,#231,#28,.T.);
#290=EDGE_CURVE('',#232,#230,#29,.T.);
#291=EDGE_CURVE('',#231,#232,#135,.T.);
#292=EDGE_CURVE('',#231,#233,#136,.T.);
#293=EDGE_CURVE('',#234,#232,#137,.T.);
#294=EDGE_CURVE('',#233,#234,#138,.T.);
#295=EDGE_CURVE('',#233,#235,#30,.T.);
#296=EDGE_CURVE('',#236,#234,#31,.T.);
#297=EDGE_CURVE('',#235,#236,#139,.T.);
#298=EDGE_CURVE('',#235,#237,#140,.T.);
#299=EDGE_CURVE('',#238,#236,#141,.T.);
#300=EDGE_CURVE('',#237,#238,#142,.T.);
#301=EDGE_CURVE('',#237,#223,#32,.T.);
#302=EDGE_CURVE('',#225,#238,#33,.T.);
#303=EDGE_CURVE('',#239,#240,#143,.T.);
#304=EDGE_CURVE('',#240,#241,#34,.T.);
#305=EDGE_CURVE('',#241,#242,#144,.T.);
#306=EDGE_CURVE('',#242,#243,#35,.T.);
#307=EDGE_CURVE('',#243,#244,#145,.T.);
#308=EDGE_CURVE('',#244,#245,#36,.T.);
#309=EDGE_CURVE('',#245,#246,#146,.T.);
#310=EDGE_CURVE('',#246,#239,#37,.T.);
#311=EDGE_CURVE('',#247,#248,#147,.T.);
#312=EDGE_CURVE('',#247,#240,#148,.T.);
#313=EDGE_CURVE('',#248,#239,#149,.T.);
#314=EDGE_CURVE('',#248,#249,#38,.T.);
#315=EDGE_CURVE('',#249,#246,#150,.T.);
#316=EDGE_CURVE('',#249,#250,#151,.T.);
#317=EDGE_CURVE('',#250,#245,#152,.T.);
#318=EDGE_CURVE('',#250,#251,#39,.T.);
#319=EDGE_CURVE('',#251,#244,#153,.T.);
#320=EDGE_CURVE('',#251,#252,#154,.T.);
#321=EDGE_CURVE('',#252,#243,#155,.T.);
#322=EDGE_CURVE('',#252,#253,#40,.T.);
#323=EDGE_CURVE('',#253,#242,#156,.T.);
#324=EDGE_CURVE('',#253,#254,#157,.T.);
#325=EDGE_CURVE('',#254,#241,#158,.T.);
#326=EDGE_CURVE('',#254,#247,#41,.T.);
#327=ORIENTED_EDGE('',*,*,#255,.F.);
#328=ORIENTED_EDGE('',*,*,#256,.T.);
#329=ORIENTED_EDGE('',*,*,#257,.F.);
#330=ORIENTED_EDGE('',*,*,#258,.F.);
#331=ORIENTED_EDGE('',*,*,#259,.F.);
#332=ORIENTED_EDGE('',*,*,#260,.T.);
#333=ORIENTED_EDGE('',*,*,#261,.F.);
#334=ORIENTED_EDGE('',*,*,#256,.F.);
#335=ORIENTED_EDGE('',*,*,#262,.F.);
#336=ORIENTED_EDGE('',*,*,#263,.T.);
#337=ORIENTED_EDGE('',*,*,#264,.F.);
#338=ORIENTED_EDGE('',*,*,#260,.F.);
#339=ORIENTED_EDGE('',*,*,#265,.F.);
#340=ORIENTED_EDGE('',*,*,#266,.T.);
#341=ORIENTED_EDGE('',*,*,#267,.F.);
#342=ORIENTED_EDGE('',*,*,#263,.F.);
#343=ORIENTED_EDGE('',*,*,#268,.F.);
#344=ORIENTED_EDGE('',*,*,#269,.T.);
#345=ORIENTED_EDGE('',*,*,#270,.F.);
#346=ORIENTED_EDGE('',*,*,#266,.F.);
#347=ORIENTED_EDGE('',*,*,#271,.F.);
#348=ORIENTED_EDGE('',*,*,#272,.T.);
#349=ORIENTED_EDGE('',*,*,#273,.F.);
#350=ORIENTED_EDGE('',*,*,#269,.F.);
#351=ORIENTED_EDGE('',*,*,#274,.F.);
#352=ORIENTED_EDGE('',*,*,#275,.T.);
#353=ORIENTED_EDGE('',*,*,#276,.F.);
#354=ORIENTED_EDGE('',*,*,#272,.F.);
#355=ORIENTED_EDGE('',*,*,#277,.F.);
#356=ORIENTED_EDGE('',*,*,#258,.T.);
#357=ORIENTED_EDGE('',*,*,#278,.F.);
#358=ORIENTED_EDGE('',*,*,#275,.F.);
#359=ORIENTED_EDGE('',*,*,#279,.F.);
#360=ORIENTED_EDGE('',*,*,#280,.T.);
#361=ORIENTED_EDGE('',*,*,#281,.F.);
#362=ORIENTED_EDGE('',*,*,#282,.F.);
#363=ORIENTED_EDGE('',*,*,#283,.F.);
#364=ORIENTED_EDGE('',*,*,#282,.T.);
#365=ORIENTED_EDGE('',*,*,#284,.F.);
#366=ORIENTED_EDGE('',*,*,#285,.F.);
#367=ORIENTED_EDGE('',*,*,#286,.F.);
#368=ORIENTED_EDGE('',*,*,#285,.T.);
#369=ORIENTED_EDGE('',*,*,#287,.F.);
#370=ORIENTED_EDGE('',*,*,#288,.F.);
#371=ORIENTED_EDGE('',*,*,#257,.T.);
#372=ORIENTED_EDGE('',*,*,#261,.T.);
#373=ORIENTED_EDGE('',*,*,#264,.T.);
#374=ORIENTED_EDGE('',*,*,#267,.T.);
#375=ORIENTED_EDGE('',*,*,#270,.T.);
#376=ORIENTED_EDGE('',*,*,#273,.T.);
#377=ORIENTED_EDGE('',*,*,#276,.T.);
#378=ORIENTED_EDGE('',*,*,#278,.T.);
#379=ORIENTED_EDGE('',*,*,#289,.F.);
#380=ORIENTED_EDGE('',*,*,#288,.T.);
#381=ORIENTED_EDGE('',*,*,#290,.F.);
#382=ORIENTED_EDGE('',*,*,#291,.F.);
#383=ORIENTED_EDGE('',*,*,#292,.F.);
#384=ORIENTED_EDGE('',*,*,#291,.T.);
#385=ORIENTED_EDGE('',*,*,#293,.F.);
#386=ORIENTED_EDGE('',*,*,#294,.F.);
#387=ORIENTED_EDGE('',*,*,#295,.F.);
#388=ORIENTED_EDGE('',*,*,#294,.T.);
#389=ORIENTED_EDGE('',*,*,#296,.F.);
#390=ORIENTED_EDGE('',*,*,#297,.F.);
#391=ORIENTED_EDGE('',*,*,#298,.F.);
#392=ORIENTED_EDGE('',*,*,#297,.T.);
#393=ORIENTED_EDGE('',*,*,#299,.F.);
#394=ORIENTED_EDGE('',*,*,#300,.F.);
#395=ORIENTED_EDGE('',*,*,#301,.F.);
#396=ORIENTED_EDGE('',*,*,#300,.T.);
#397=ORIENTED_EDGE('',*,*,#302,.F.);
#398=ORIENTED_EDGE('',*,*,#280,.F.);
#399=ORIENTED_EDGE('',*,*,#303,.T.);
#400=ORIENTED_EDGE('',*,*,#304,.T.);
#401=ORIENTED_EDGE('',*,*,#305,.T.);
#402=ORIENTED_EDGE('',*,*,#306,.T.);
#403=ORIENTED_EDGE('',*,*,#307,.T.);
#404=ORIENTED_EDGE('',*,*,#308,.T.);
#405=ORIENTED_EDGE('',*,*,#309,.T.);
#406=ORIENTED_EDGE('',*,*,#310,.T.);
#407=ORIENTED_EDGE('',*,*,#302,.T.);
#408=ORIENTED_EDGE('',*,*,#299,.T.);
#409=ORIENTED_EDGE('',*,*,#296,.T.);
#410=ORIENTED_EDGE('',*,*,#293,.T.);
#411=ORIENTED_EDGE('',*,*,#290,.T.);
#412=ORIENTED_EDGE('',*,*,#287,.T.);
#413=ORIENTED_EDGE('',*,*,#284,.T.);
#414=ORIENTED_EDGE('',*,*,#281,.T.);
#415=ORIENTED_EDGE('',*,*,#311,.F.);
#416=ORIENTED_EDGE('',*,*,#312,.T.);
#417=ORIENTED_EDGE('',*,*,#303,.F.);
#418=ORIENTED_EDGE('',*,*,#313,.F.);
#419=ORIENTED_EDGE('',*,*,#314,.F.);
#420=ORIENTED_EDGE('',*,*,#313,.T.);
#421=ORIENTED_EDGE('',*,*,#310,.F.);
#422=ORIENTED_EDGE('',*,*,#315,.F.);
#423=ORIENTED_EDGE('',*,*,#316,.F.);
#424=ORIENTED_EDGE('',*,*,#315,.T.);
#425=ORIENTED_EDGE('',*,*,#309,.F.);
#426=ORIENTED_EDGE('',*,*,#317,.F.);
#427=ORIENTED_EDGE('',*,*,#255,.T.);
#428=ORIENTED_EDGE('',*,*,#277,.T.);
#429=ORIENTED_EDGE('',*,*,#274,.T.);
#430=ORIENTED_EDGE('',*,*,#271,.T.);
#431=ORIENTED_EDGE('',*,*,#268,.T.);
#432=ORIENTED_EDGE('',*,*,#265,.T.);
#433=ORIENTED_EDGE('',*,*,#262,.T.);
#434=ORIENTED_EDGE('',*,*,#259,.T.);
#435=ORIENTED_EDGE('',*,*,#318,.F.);
#436=ORIENTED_EDGE('',*,*,#317,.T.);
#437=ORIENTED_EDGE('',*,*,#308,.F.);
#438=ORIENTED_EDGE('',*,*,#319,.F.);
#439=ORIENTED_EDGE('',*,*,#320,.F.);
#440=ORIENTED_EDGE('',*,*,#319,.T.);
#441=ORIENTED_EDGE('',*,*,#307,.F.);
#442=ORIENTED_EDGE('',*,*,#321,.F.);
#443=ORIENTED_EDGE('',*,*,#322,.F.);
#444=ORIENTED_EDGE('',*,*,#321,.T.);
#445=ORIENTED_EDGE('',*,*,#306,.F.);
#446=ORIENTED_EDGE('',*,*,#323,.F.);
#447=ORIENTED_EDGE('',*,*,#324,.F.);
#448=ORIENTED_EDGE('',*,*,#323,.T.);
#449=ORIENTED_EDGE('',*,*,#305,.F.);
#450=ORIENTED_EDGE('',*,*,#325,.F.);
#451=ORIENTED_EDGE('',*,*,#326,.F.);
#452=ORIENTED_EDGE('',*,*,#325,.T.);
#453=ORIENTED_EDGE('',*,*,#304,.F.);
#454=ORIENTED_EDGE('',*,*,#312,.F.);
#455=ORIENTED_EDGE('',*,*,#326,.T.);
#456=ORIENTED_EDGE('',*,*,#311,.T.);
#457=ORIENTED_EDGE('',*,*,#314,.T.);
#458=ORIENTED_EDGE('',*,*,#316,.T.);
#459=ORIENTED_EDGE('',*,*,#318,.T.);
#460=ORIENTED_EDGE('',*,*,#320,.T.);
#461=ORIENTED_EDGE('',*,*,#322,.T.);
#462=ORIENTED_EDGE('',*,*,#324,.T.);
#463=ORIENTED_EDGE('',*,*,#279,.T.);
#464=ORIENTED_EDGE('',*,*,#283,.T.);
#465=ORIENTED_EDGE('',*,*,#286,.T.);
#466=ORIENTED_EDGE('',*,*,#289,.T.);
#467=ORIENTED_EDGE('',*,*,#292,.T.);
#468=ORIENTED_EDGE('',*,*,#295,.T.);
#469=ORIENTED_EDGE('',*,*,#298,.T.);
#470=ORIENTED_EDGE('',*,*,#301,.T.);
#471=PLANE('',#527);
#472=PLANE('',#531);
#473=PLANE('',#535);
#474=PLANE('',#539);
#475=PLANE('',#543);
#476=PLANE('',#547);
#477=PLANE('',#551);
#478=PLANE('',#555);
#479=PLANE('',#559);
#480=PLANE('',#564);
#481=PLANE('',#567);
#482=PLANE('',#570);
#483=PLANE('',#573);
#484=PLANE('',#576);
#485=PLANE('',#577);
#486=ADVANCED_FACE('',(#54),#471,.F.);
#487=ADVANCED_FACE('',(#55),#42,.F.);
#488=ADVANCED_FACE('',(#56),#472,.F.);
#489=ADVANCED_FACE('',(#57),#43,.F.);
#490=ADVANCED_FACE('',(#58),#473,.F.);
#491=ADVANCED_FACE('',(#59),#44,.F.);
#492=ADVANCED_FACE('',(#60),#474,.F.);
#493=ADVANCED_FACE('',(#61),#45,.F.);
#494=ADVANCED_FACE('',(#62),#475,.T.);
#495=ADVANCED_FACE('',(#63),#46,.F.);
#496=ADVANCED_FACE('',(#64,#15),#476,.T.);
#497=ADVANCED_FACE('',(#65),#47,.F.);
#498=ADVANCED_FACE('',(#66),#477,.T.);
#499=ADVANCED_FACE('',(#67),#48,.F.);
#500=ADVANCED_FACE('',(#68),#478,.T.);
#501=ADVANCED_FACE('',(#69),#49,.F.);
#502=ADVANCED_FACE('',(#70,#16),#479,.T.);
#503=ADVANCED_FACE('',(#71),#480,.T.);
#504=ADVANCED_FACE('',(#72),#50,.T.);
#505=ADVANCED_FACE('',(#73,#17),#481,.T.);
#506=ADVANCED_FACE('',(#74),#51,.T.);
#507=ADVANCED_FACE('',(#75),#482,.T.);
#508=ADVANCED_FACE('',(#76),#52,.T.);
#509=ADVANCED_FACE('',(#77),#483,.T.);
#510=ADVANCED_FACE('',(#78),#53,.T.);
#511=ADVANCED_FACE('',(#79),#484,.T.);
#512=ADVANCED_FACE('',(#80),#485,.F.);
#513=CLOSED_SHELL('',(#486,#487,#488,#489,#490,#491,#492,#493,#494,#495,
#496,#497,#498,#499,#500,#501,#502,#503,#504,#505,#506,#507,#508,#509,#510,
#511,#512));
#514=DERIVED_UNIT_ELEMENT(#516,1.);
#515=DERIVED_UNIT_ELEMENT(#883,-3.);
#516=(
MASS_UNIT()
NAMED_UNIT(*)
SI_UNIT(.KILO.,.GRAM.)
);
#517=DERIVED_UNIT((#514,#515));
#518=MEASURE_REPRESENTATION_ITEM('density measure',
POSITIVE_RATIO_MEASURE(7850.),#517);
#519=PROPERTY_DEFINITION_REPRESENTATION(#524,#521);
#520=PROPERTY_DEFINITION_REPRESENTATION(#525,#522);
#521=REPRESENTATION('material name',(#523),#880);
#522=REPRESENTATION('density',(#518),#880);
#523=DESCRIPTIVE_REPRESENTATION_ITEM('Steel','Steel');
#524=PROPERTY_DEFINITION('material property','material name',#890);
#525=PROPERTY_DEFINITION('material property','density of part',#890);
#526=AXIS2_PLACEMENT_3D('',#730,#578,#579);
#527=AXIS2_PLACEMENT_3D('',#731,#580,#581);
#528=AXIS2_PLACEMENT_3D('',#740,#586,#587);
#529=AXIS2_PLACEMENT_3D('',#742,#588,#589);
#530=AXIS2_PLACEMENT_3D('',#745,#591,#592);
#531=AXIS2_PLACEMENT_3D('',#746,#593,#594);
#532=AXIS2_PLACEMENT_3D('',#752,#598,#599);
#533=AXIS2_PLACEMENT_3D('',#754,#600,#601);
#534=AXIS2_PLACEMENT_3D('',#757,#603,#604);
#535=AXIS2_PLACEMENT_3D('',#758,#605,#606);
#536=AXIS2_PLACEMENT_3D('',#764,#610,#611);
#537=AXIS2_PLACEMENT_3D('',#766,#612,#613);
#538=AXIS2_PLACEMENT_3D('',#769,#615,#616);
#539=AXIS2_PLACEMENT_3D('',#770,#617,#618);
#540=AXIS2_PLACEMENT_3D('',#776,#622,#623);
#541=AXIS2_PLACEMENT_3D('',#777,#624,#625);
#542=AXIS2_PLACEMENT_3D('',#778,#626,#627);
#543=AXIS2_PLACEMENT_3D('',#779,#628,#629);
#544=AXIS2_PLACEMENT_3D('',#788,#634,#635);
#545=AXIS2_PLACEMENT_3D('',#790,#636,#637);
#546=AXIS2_PLACEMENT_3D('',#792,#638,#639);
#547=AXIS2_PLACEMENT_3D('',#794,#641,#642);
#548=AXIS2_PLACEMENT_3D('',#800,#646,#647);
#549=AXIS2_PLACEMENT_3D('',#802,#648,#649);
#550=AXIS2_PLACEMENT_3D('',#804,#650,#651);
#551=AXIS2_PLACEMENT_3D('',#806,#653,#654);
#552=AXIS2_PLACEMENT_3D('',#812,#658,#659);
#553=AXIS2_PLACEMENT_3D('',#814,#660,#661);
#554=AXIS2_PLACEMENT_3D('',#816,#662,#663);
#555=AXIS2_PLACEMENT_3D('',#818,#665,#666);
#556=AXIS2_PLACEMENT_3D('',#824,#670,#671);
#557=AXIS2_PLACEMENT_3D('',#825,#672,#673);
#558=AXIS2_PLACEMENT_3D('',#826,#674,#675);
#559=AXIS2_PLACEMENT_3D('',#827,#676,#677);
#560=AXIS2_PLACEMENT_3D('',#832,#679,#680);
#561=AXIS2_PLACEMENT_3D('',#836,#682,#683);
#562=AXIS2_PLACEMENT_3D('',#840,#685,#686);
#563=AXIS2_PLACEMENT_3D('',#843,#688,#689);
#564=AXIS2_PLACEMENT_3D('',#844,#690,#691);
#565=AXIS2_PLACEMENT_3D('',#850,#695,#696);
#566=AXIS2_PLACEMENT_3D('',#852,#697,#698);
#567=AXIS2_PLACEMENT_3D('',#854,#700,#701);
#568=AXIS2_PLACEMENT_3D('',#858,#704,#705);
#569=AXIS2_PLACEMENT_3D('',#860,#706,#707);
#570=AXIS2_PLACEMENT_3D('',#862,#709,#710);
#571=AXIS2_PLACEMENT_3D('',#866,#713,#714);
#572=AXIS2_PLACEMENT_3D('',#868,#715,#716);
#573=AXIS2_PLACEMENT_3D('',#870,#718,#719);
#574=AXIS2_PLACEMENT_3D('',#874,#722,#723);
#575=AXIS2_PLACEMENT_3D('',#875,#724,#725);
#576=AXIS2_PLACEMENT_3D('',#876,#726,#727);
#577=AXIS2_PLACEMENT_3D('',#877,#728,#729);
#578=DIRECTION('axis',(0.,0.,1.));
#579=DIRECTION('refdir',(1.,0.,0.));
#580=DIRECTION('center_axis',(1.7239487960018E-16,0.,1.));
#581=DIRECTION('ref_axis',(1.,0.,-1.7239487960018E-16));
#582=DIRECTION('',(1.,7.89798849848483E-13,-1.7239487960018E-16));
#583=DIRECTION('',(0.,1.,0.));
#584=DIRECTION('',(-1.,7.90011331510452E-13,1.7239487960018E-16));
#585=DIRECTION('',(0.,1.,0.));
#586=DIRECTION('center_axis',(0.,1.,0.));
#587=DIRECTION('ref_axis',(0.,0.,1.));
#588=DIRECTION('center_axis',(-7.89798849848483E-13,1.,0.));
#589=DIRECTION('ref_axis',(0.,0.,1.));
#590=DIRECTION('',(0.,1.,0.));
#591=DIRECTION('center_axis',(-7.90011331510452E-13,-1.,0.));
#592=DIRECTION('ref_axis',(0.,0.,1.));
#593=DIRECTION('center_axis',(-1.,0.,0.));
#594=DIRECTION('ref_axis',(0.,0.,1.));
#595=DIRECTION('',(0.,0.,1.));
#596=DIRECTION('',(0.,1.,0.));
#597=DIRECTION('',(0.,0.,-1.));
#598=DIRECTION('center_axis',(0.,1.,0.));
#599=DIRECTION('ref_axis',(-1.,0.,0.));
#600=DIRECTION('center_axis',(-7.89798849848483E-13,1.,0.));
#601=DIRECTION('ref_axis',(-1.,0.,0.));
#602=DIRECTION('',(0.,1.,0.));
#603=DIRECTION('center_axis',(-7.90011331510452E-13,-1.,0.));
#604=DIRECTION('ref_axis',(-1.,0.,0.));
#605=DIRECTION('center_axis',(0.,0.,-1.));
#606=DIRECTION('ref_axis',(-1.,0.,0.));
#607=DIRECTION('',(-1.,-7.89798849848483E-13,0.));
#608=DIRECTION('',(0.,1.,0.));
#609=DIRECTION('',(1.,-7.90011331510452E-13,0.));
#610=DIRECTION('center_axis',(0.,1.,0.));
#611=DIRECTION('ref_axis',(0.,0.,-1.));
#612=DIRECTION('center_axis',(-7.89798849848483E-13,1.,0.));
#613=DIRECTION('ref_axis',(0.,0.,-1.));
#614=DIRECTION('',(0.,1.,0.));
#615=DIRECTION('center_axis',(-7.90011331510452E-13,-1.,0.));
#616=DIRECTION('ref_axis',(0.,0.,-1.));
#617=DIRECTION('center_axis',(1.,0.,0.));
#618=DIRECTION('ref_axis',(0.,0.,-1.));
#619=DIRECTION('',(0.,0.,-1.));
#620=DIRECTION('',(0.,1.,0.));
#621=DIRECTION('',(0.,0.,1.));
#622=DIRECTION('center_axis',(0.,1.,0.));
#623=DIRECTION('ref_axis',(1.,0.,0.));
#624=DIRECTION('center_axis',(-7.89798849848483E-13,1.,0.));
#625=DIRECTION('ref_axis',(1.,0.,0.));
#626=DIRECTION('center_axis',(-7.90011331510452E-13,-1.,0.));
#627=DIRECTION('ref_axis',(1.,0.,0.));
#628=DIRECTION('center_axis',(1.,-1.2652114246531E-16,0.));
#629=DIRECTION('ref_axis',(1.2652114246531E-16,1.,0.));
#630=DIRECTION('',(-1.2652114246531E-16,-1.,0.));
#631=DIRECTION('',(0.,0.,1.));
#632=DIRECTION('',(1.2652114246531E-16,1.,0.));
#633=DIRECTION('',(0.,0.,1.));
#634=DIRECTION('center_axis',(0.,0.,1.));
#635=DIRECTION('ref_axis',(-0.999999999999998,5.83818151173994E-8,0.));
#636=DIRECTION('center_axis',(0.,0.,1.));
#637=DIRECTION('ref_axis',(-0.999999999999998,5.83818151173994E-8,0.));
#638=DIRECTION('center_axis',(0.,0.,-1.));
#639=DIRECTION('ref_axis',(-0.999999999999998,5.83818151173994E-8,0.));
#640=DIRECTION('',(0.,0.,1.));
#641=DIRECTION('center_axis',(7.90011331510452E-13,1.,0.));
#642=DIRECTION('ref_axis',(-1.,7.90011331510452E-13,0.));
#643=DIRECTION('',(1.,-7.90011331510452E-13,0.));
#644=DIRECTION('',(-1.,7.90011331510452E-13,0.));
#645=DIRECTION('',(0.,0.,1.));
#646=DIRECTION('center_axis',(0.,0.,1.));
#647=DIRECTION('ref_axis',(-5.83927284078091E-8,-0.999999999999998,0.));
#648=DIRECTION('center_axis',(0.,0.,1.));
#649=DIRECTION('ref_axis',(-5.83927284078091E-8,-0.999999999999998,0.));
#650=DIRECTION('center_axis',(0.,0.,-1.));
#651=DIRECTION('ref_axis',(-5.83927284078091E-8,-0.999999999999998,0.));
#652=DIRECTION('',(0.,0.,1.));
#653=DIRECTION('center_axis',(-1.,5.06084569861188E-16,0.));
#654=DIRECTION('ref_axis',(-5.06084569861188E-16,-1.,0.));
#655=DIRECTION('',(5.06084569861188E-16,1.,0.));
#656=DIRECTION('',(-5.06084569861188E-16,-1.,0.));
#657=DIRECTION('',(0.,0.,1.));
#658=DIRECTION('center_axis',(0.,0.,1.));
#659=DIRECTION('ref_axis',(0.999999999999998,-5.83945532115519E-8,0.));
#660=DIRECTION('center_axis',(0.,0.,1.));
#661=DIRECTION('ref_axis',(0.999999999999998,-5.83945532115519E-8,0.));
#662=DIRECTION('center_axis',(0.,0.,-1.));
#663=DIRECTION('ref_axis',(0.999999999999998,-5.83945532115519E-8,0.));
#664=DIRECTION('',(0.,0.,1.));
#665=DIRECTION('center_axis',(4.78617677306961E-14,-1.,0.));
#666=DIRECTION('ref_axis',(1.,4.78617677306961E-14,0.));
#667=DIRECTION('',(-1.,-4.78617677306961E-14,0.));
#668=DIRECTION('',(1.,4.78617677306961E-14,0.));
#669=DIRECTION('',(0.,0.,1.));
#670=DIRECTION('center_axis',(0.,0.,1.));
#671=DIRECTION('ref_axis',(5.83938216755077E-8,0.999999999999998,0.));
#672=DIRECTION('center_axis',(0.,0.,1.));
#673=DIRECTION('ref_axis',(5.83938216755077E-8,0.999999999999998,0.));
#674=DIRECTION('center_axis',(0.,0.,-1.));
#675=DIRECTION('ref_axis',(5.83938216755077E-8,0.999999999999998,0.));
#676=DIRECTION('center_axis',(0.,0.,1.));
#677=DIRECTION('ref_axis',(-1.,0.,0.));
#678=DIRECTION('',(-1.4246280667665E-13,1.,0.));
#679=DIRECTION('center_axis',(0.,0.,1.));
#680=DIRECTION('ref_axis',(0.999999999999998,-6.42340051640335E-8,0.));
#681=DIRECTION('',(-1.,4.77024056472938E-14,0.));
#682=DIRECTION('center_axis',(0.,0.,1.));
#683=DIRECTION('ref_axis',(6.42332040270304E-8,0.999999999999998,0.));
#684=DIRECTION('',(2.53042285393567E-16,-1.,0.));
#685=DIRECTION('center_axis',(0.,0.,1.));
#686=DIRECTION('ref_axis',(-0.999999999999998,6.42199991818398E-8,0.));
#687=DIRECTION('',(1.,7.89798849848483E-13,0.));
#688=DIRECTION('center_axis',(0.,0.,1.));
#689=DIRECTION('ref_axis',(-6.42320049861124E-8,-0.999999999999998,0.));
#690=DIRECTION('center_axis',(1.,8.57813347484622E-14,0.));
#691=DIRECTION('ref_axis',(-8.57813347484622E-14,1.,0.));
#692=DIRECTION('',(8.57813347484622E-14,-1.,0.));
#693=DIRECTION('',(0.,0.,1.));
#694=DIRECTION('',(0.,0.,1.));
#695=DIRECTION('center_axis',(0.,0.,1.));
#696=DIRECTION('ref_axis',(0.999999999999999,4.28133327878589E-8,0.));
#697=DIRECTION('center_axis',(0.,0.,-1.));
#698=DIRECTION('ref_axis',(0.999999999999999,4.28133327878589E-8,0.));
#699=DIRECTION('',(0.,0.,1.));
#700=DIRECTION('center_axis',(7.89798849848483E-13,-1.,0.));
#701=DIRECTION('ref_axis',(1.,7.89798849848483E-13,0.));
#702=DIRECTION('',(-1.,-7.89798849848483E-13,0.));
#703=DIRECTION('',(0.,0.,1.));
#704=DIRECTION('center_axis',(0.,0.,1.));
#705=DIRECTION('ref_axis',(4.28221346360324E-8,-0.999999999999999,0.));
#706=DIRECTION('center_axis',(0.,0.,-1.));
#707=DIRECTION('ref_axis',(4.28221346360324E-8,-0.999999999999999,0.));
#708=DIRECTION('',(0.,0.,1.));
#709=DIRECTION('center_axis',(-1.,-2.53042285393567E-16,0.));
#710=DIRECTION('ref_axis',(2.53042285393567E-16,-1.,0.));
#711=DIRECTION('',(-2.53042285393567E-16,1.,0.));
#712=DIRECTION('',(0.,0.,1.));
#713=DIRECTION('center_axis',(0.,0.,1.));
#714=DIRECTION('ref_axis',(-0.999999999999999,-4.28226693198408E-8,0.));
#715=DIRECTION('center_axis',(0.,0.,-1.));
#716=DIRECTION('ref_axis',(-0.999999999999999,-4.28226693198408E-8,0.));
#717=DIRECTION('',(0.,0.,1.));
#718=DIRECTION('center_axis',(4.77555263662774E-14,1.,0.));
#719=DIRECTION('ref_axis',(-1.,4.77555263662774E-14,0.));
#720=DIRECTION('',(1.,-4.77555263662774E-14,0.));
#721=DIRECTION('',(0.,0.,1.));
#722=DIRECTION('center_axis',(0.,0.,1.));
#723=DIRECTION('ref_axis',(-4.28213358679392E-8,0.999999999999999,0.));
#724=DIRECTION('center_axis',(0.,0.,-1.));
#725=DIRECTION('ref_axis',(-4.28213358679392E-8,0.999999999999999,0.));
#726=DIRECTION('center_axis',(0.,0.,-1.));
#727=DIRECTION('ref_axis',(-1.,0.,0.));
#728=DIRECTION('center_axis',(0.,0.,-1.));
#729=DIRECTION('ref_axis',(-1.,0.,0.));
#730=CARTESIAN_POINT('',(0.,0.,0.));
#731=CARTESIAN_POINT('Origin',(71.28,-113.400000000029,6.49999999999998));
#732=CARTESIAN_POINT('',(71.28,-113.400000000029,6.49999999999998));
#733=CARTESIAN_POINT('',(77.72,-113.400000000029,6.49999999999998));
#734=CARTESIAN_POINT('',(53.94,-113.399999999986,6.49999999999998));
#735=CARTESIAN_POINT('',(71.28,-111.400000000029,6.49999999999998));
#736=CARTESIAN_POINT('',(71.28,-113.400000000029,6.49999999999998));
#737=CARTESIAN_POINT('',(77.72,-111.400000000029,6.49999999999998));
#738=CARTESIAN_POINT('',(95.7400000000008,-111.399999999981,6.49999999999998));
#739=CARTESIAN_POINT('',(77.72,-113.400000000029,6.49999999999998));
#740=CARTESIAN_POINT('Origin',(71.28,-113.400000000029,4.74999999999998));
#741=CARTESIAN_POINT('',(69.53,-113.400000000029,4.74999999999998));
#742=CARTESIAN_POINT('Origin',(71.28,-113.4,4.74999999999998));
#743=CARTESIAN_POINT('',(69.53,-111.400000000029,4.74999999999998));
#744=CARTESIAN_POINT('',(69.53,-113.400000000029,4.74999999999998));
#745=CARTESIAN_POINT('Origin',(71.28,-111.4,4.74999999999998));
#746=CARTESIAN_POINT('Origin',(69.53,-113.400000000029,4.03999999999998));
#747=CARTESIAN_POINT('',(69.53,-113.400000000029,4.03999999999998));
#748=CARTESIAN_POINT('',(69.53,-113.399999999974,1.01999999999999));
#749=CARTESIAN_POINT('',(69.53,-111.400000000029,4.03999999999998));
#750=CARTESIAN_POINT('',(69.53,-113.400000000029,4.03999999999998));
#751=CARTESIAN_POINT('',(69.53,-111.39999999996,2.01999999999999));
#752=CARTESIAN_POINT('Origin',(71.28,-113.400000000029,4.03999999999998));
#753=CARTESIAN_POINT('',(71.28,-113.400000000029,2.28999999999998));
#754=CARTESIAN_POINT('Origin',(71.28,-113.4,4.03999999999998));
#755=CARTESIAN_POINT('',(71.28,-111.400000000029,2.28999999999998));
#756=CARTESIAN_POINT('',(71.28,-113.400000000029,2.28999999999998));
#757=CARTESIAN_POINT('Origin',(71.28,-111.4,4.03999999999998));
#758=CARTESIAN_POINT('Origin',(77.72,-113.400000000029,2.28999999999998));
#759=CARTESIAN_POINT('',(77.72,-113.400000000029,2.28999999999998));
#760=CARTESIAN_POINT('',(57.16,-113.399999999984,2.28999999999998));
#761=CARTESIAN_POINT('',(77.72,-111.400000000029,2.28999999999998));
#762=CARTESIAN_POINT('',(77.72,-113.400000000029,2.28999999999998));
#763=CARTESIAN_POINT('',(98.9600000000008,-111.399999999983,2.28999999999998));
#764=CARTESIAN_POINT('Origin',(77.72,-113.400000000029,4.03999999999998));
#765=CARTESIAN_POINT('',(79.47,-113.400000000029,4.03999999999998));
#766=CARTESIAN_POINT('Origin',(77.72,-113.4,4.03999999999998));
#767=CARTESIAN_POINT('',(79.47,-111.400000000029,4.03999999999998));
#768=CARTESIAN_POINT('',(79.47,-113.400000000029,4.03999999999998));
#769=CARTESIAN_POINT('Origin',(77.72,-111.4,4.03999999999998));
#770=CARTESIAN_POINT('Origin',(79.47,-113.400000000029,4.74999999999998));
#771=CARTESIAN_POINT('',(79.47,-113.400000000029,4.74999999999998));
#772=CARTESIAN_POINT('',(79.47,-113.399999999966,1.37499999999999));
#773=CARTESIAN_POINT('',(79.47,-111.400000000029,4.74999999999998));
#774=CARTESIAN_POINT('',(79.47,-113.400000000029,4.74999999999998));
#775=CARTESIAN_POINT('',(79.47,-111.399999999968,2.37499999999999));
#776=CARTESIAN_POINT('Origin',(77.72,-113.400000000029,4.74999999999998));
#777=CARTESIAN_POINT('Origin',(77.72,-113.4,4.74999999999998));
#778=CARTESIAN_POINT('Origin',(77.72,-111.4,4.74999999999998));
#779=CARTESIAN_POINT('Origin',(31.1,-105.9,0.));
#780=CARTESIAN_POINT('',(31.1,-35.700000032117,0.));
#781=CARTESIAN_POINT('',(31.1,-105.9,0.));
#782=CARTESIAN_POINT('',(31.1,-88.349999999999,0.));
#783=CARTESIAN_POINT('',(31.1,-35.700000032117,10.));
#784=CARTESIAN_POINT('',(31.1,-35.700000032117,0.));
#785=CARTESIAN_POINT('',(31.1,-105.9,10.));
#786=CARTESIAN_POINT('',(31.1,-105.9,10.));
#787=CARTESIAN_POINT('',(31.1,-105.9,0.));
#788=CARTESIAN_POINT('Origin',(36.599999678834,-105.9000003211,0.));
#789=CARTESIAN_POINT('',(36.6000000321166,-111.399999999934,0.));
#790=CARTESIAN_POINT('Origin',(36.599999678834,-105.9000003211,0.));
#791=CARTESIAN_POINT('',(36.6000000321166,-111.399999999934,10.));
#792=CARTESIAN_POINT('Origin',(36.599999678834,-105.9000003211,10.));
#793=CARTESIAN_POINT('',(36.6000000321166,-111.399999999934,0.));
#794=CARTESIAN_POINT('Origin',(120.2,-111.4,0.));
#795=CARTESIAN_POINT('',(120.2,-111.4,0.));
#796=CARTESIAN_POINT('',(99.2999999999675,-111.399999999984,0.));
#797=CARTESIAN_POINT('',(120.2,-111.4,10.));
#798=CARTESIAN_POINT('',(120.2,-111.4,10.));
#799=CARTESIAN_POINT('',(120.2,-111.4,0.));
#800=CARTESIAN_POINT('Origin',(120.20000032116,-105.9000003211,0.));
#801=CARTESIAN_POINT('',(125.699999999994,-105.89999996789,0.));
#802=CARTESIAN_POINT('Origin',(120.20000032116,-105.9000003211,0.));
#803=CARTESIAN_POINT('',(125.699999999994,-105.89999996789,10.));
#804=CARTESIAN_POINT('Origin',(120.20000032116,-105.9000003211,10.));
#805=CARTESIAN_POINT('',(125.699999999994,-105.89999996789,0.));
#806=CARTESIAN_POINT('Origin',(125.699999999994,-35.7,0.));
#807=CARTESIAN_POINT('',(125.699999999994,-35.7,0.));
#808=CARTESIAN_POINT('',(125.699999999994,-53.249999999999,0.));
#809=CARTESIAN_POINT('',(125.699999999994,-35.7,10.));
#810=CARTESIAN_POINT('',(125.699999999994,-35.7,10.));
#811=CARTESIAN_POINT('',(125.699999999994,-35.7,0.));
#812=CARTESIAN_POINT('Origin',(120.20000032116,-35.69999967883,0.));
#813=CARTESIAN_POINT('',(120.199999967884,-30.199999999996,0.));
#814=CARTESIAN_POINT('Origin',(120.20000032116,-35.69999967883,0.));
#815=CARTESIAN_POINT('',(120.199999967884,-30.199999999996,10.));
#816=CARTESIAN_POINT('Origin',(120.20000032116,-35.69999967883,10.));
#817=CARTESIAN_POINT('',(120.199999967884,-30.199999999996,0.));
#818=CARTESIAN_POINT('Origin',(36.6,-30.2,0.));
#819=CARTESIAN_POINT('',(36.6,-30.2,0.));
#820=CARTESIAN_POINT('',(57.4999999999825,-30.199999999999,0.));
#821=CARTESIAN_POINT('',(36.6,-30.2,10.));
#822=CARTESIAN_POINT('',(36.6,-30.2,10.));
#823=CARTESIAN_POINT('',(36.6,-30.2,0.));
#824=CARTESIAN_POINT('Origin',(36.599999678834,-35.69999967883,0.));
#825=CARTESIAN_POINT('Origin',(36.599999678834,-35.69999967883,0.));
#826=CARTESIAN_POINT('Origin',(36.599999678834,-35.69999967883,10.));
#827=CARTESIAN_POINT('Origin',(78.4,-70.799999999998,10.));
#828=CARTESIAN_POINT('',(127.7,-105.9,10.));
#829=CARTESIAN_POINT('',(127.69999999999,-35.700000160585,10.));
#830=CARTESIAN_POINT('',(127.7,-105.9,10.));
#831=CARTESIAN_POINT('',(120.2,-28.2,10.));
#832=CARTESIAN_POINT('Origin',(120.20000032116,-35.69999967883,10.));
#833=CARTESIAN_POINT('',(36.600000160583,-28.199999999996,10.));
#834=CARTESIAN_POINT('',(120.2,-28.2,10.));
#835=CARTESIAN_POINT('',(29.1,-35.7,10.));
#836=CARTESIAN_POINT('Origin',(36.599999678834,-35.69999967883,10.));
#837=CARTESIAN_POINT('',(29.1,-105.89999983945,10.));
#838=CARTESIAN_POINT('',(29.1,-35.7,10.));
#839=CARTESIAN_POINT('',(36.6,-113.4,10.));
#840=CARTESIAN_POINT('Origin',(36.599999678834,-105.9000003211,10.));
#841=CARTESIAN_POINT('',(120.19999983942,-113.399999999934,10.));
#842=CARTESIAN_POINT('',(36.6,-113.4,10.));
#843=CARTESIAN_POINT('Origin',(120.20000032116,-105.9000003211,10.));
#844=CARTESIAN_POINT('Origin',(127.7,-105.9,-2.));
#845=CARTESIAN_POINT('',(127.69999999999,-35.700000160585,-2.));
#846=CARTESIAN_POINT('',(127.7,-105.9,-2.));
#847=CARTESIAN_POINT('',(127.699999999994,-35.700000160585,-2.));
#848=CARTESIAN_POINT('',(127.69999999999,-35.700000160585,-2.));
#849=CARTESIAN_POINT('',(127.7,-105.9,-2.));
#850=CARTESIAN_POINT('Origin',(120.20000032116,-105.9000003211,-2.));
#851=CARTESIAN_POINT('',(120.19999983942,-113.399999999934,-2.));
#852=CARTESIAN_POINT('Origin',(120.20000032116,-105.9000003211,-2.));
#853=CARTESIAN_POINT('',(120.19999983942,-113.399999999934,-2.));
#854=CARTESIAN_POINT('Origin',(36.6,-113.4,-2.));
#855=CARTESIAN_POINT('',(36.6,-113.4,-2.));
#856=CARTESIAN_POINT('',(120.19999983942,-113.399999999934,-2.));
#857=CARTESIAN_POINT('',(36.6,-113.4,-2.));
#858=CARTESIAN_POINT('Origin',(36.599999678834,-105.9000003211,-2.));
#859=CARTESIAN_POINT('',(29.1,-105.89999983945,-2.));
#860=CARTESIAN_POINT('Origin',(36.599999678834,-105.9000003211,-2.));
#861=CARTESIAN_POINT('',(29.1,-105.89999983945,-2.));
#862=CARTESIAN_POINT('Origin',(29.1,-35.7,-2.));
#863=CARTESIAN_POINT('',(29.1,-35.7,-2.));
#864=CARTESIAN_POINT('',(29.1,-105.89999983945,-2.));
#865=CARTESIAN_POINT('',(29.1,-35.7,-2.));
#866=CARTESIAN_POINT('Origin',(36.599999678834,-35.69999967883,-2.));
#867=CARTESIAN_POINT('',(36.600000160583,-28.199999999996,-2.));
#868=CARTESIAN_POINT('Origin',(36.599999678834,-35.69999967883,-2.));
#869=CARTESIAN_POINT('',(36.600000160583,-28.199999999996,-2.));
#870=CARTESIAN_POINT('Origin',(120.2,-28.2,-2.));
#871=CARTESIAN_POINT('',(120.2,-28.2,-2.));
#872=CARTESIAN_POINT('',(36.600000160583,-28.199999999996,-2.));
#873=CARTESIAN_POINT('',(120.2,-28.2,-2.));
#874=CARTESIAN_POINT('Origin',(120.20000032116,-35.69999967883,-2.));
#875=CARTESIAN_POINT('Origin',(120.20000032116,-35.69999967883,-2.));
#876=CARTESIAN_POINT('Origin',(78.399999999967,-70.799999999998,-2.));
#877=CARTESIAN_POINT('Origin',(78.399999999967,-70.799999999998,0.));
#878=UNCERTAINTY_MEASURE_WITH_UNIT(LENGTH_MEASURE(0.01),#882,
'DISTANCE_ACCURACY_VALUE',
'Maximum model space distance between geometric entities at asserted c
onnectivities');
#879=UNCERTAINTY_MEASURE_WITH_UNIT(LENGTH_MEASURE(0.01),#882,
'DISTANCE_ACCURACY_VALUE',
'Maximum model space distance between geometric entities at asserted c
onnectivities');
#880=(
GEOMETRIC_REPRESENTATION_CONTEXT(3)
GLOBAL_UNCERTAINTY_ASSIGNED_CONTEXT((#878))
GLOBAL_UNIT_ASSIGNED_CONTEXT((#882,#884,#885))
REPRESENTATION_CONTEXT('','3D')
);
#881=(
GEOMETRIC_REPRESENTATION_CONTEXT(3)
GLOBAL_UNCERTAINTY_ASSIGNED_CONTEXT((#879))
GLOBAL_UNIT_ASSIGNED_CONTEXT((#882,#884,#885))
REPRESENTATION_CONTEXT('','3D')
);
#882=(
LENGTH_UNIT()
NAMED_UNIT(*)
SI_UNIT(.MILLI.,.METRE.)
);
#883=(
LENGTH_UNIT()
NAMED_UNIT(*)
SI_UNIT($,.METRE.)
);
#884=(
NAMED_UNIT(*)
PLANE_ANGLE_UNIT()
SI_UNIT($,.RADIAN.)
);
#885=(
NAMED_UNIT(*)
SI_UNIT($,.STERADIAN.)
SOLID_ANGLE_UNIT()
);
#886=SHAPE_DEFINITION_REPRESENTATION(#887,#888);
#887=PRODUCT_DEFINITION_SHAPE('',$,#890);
#888=SHAPE_REPRESENTATION('',(#526),#880);
#889=PRODUCT_DEFINITION_CONTEXT('part definition',#894,'design');
#890=PRODUCT_DEFINITION('2026-08-14-20-11-01-931','BottomCase',#891,#889);
#891=PRODUCT_DEFINITION_FORMATION('',$,#896);
#892=PRODUCT_RELATED_PRODUCT_CATEGORY('BottomCase','BottomCase',(#896));
#893=APPLICATION_PROTOCOL_DEFINITION('international standard',
'automotive_design',2009,#894);
#894=APPLICATION_CONTEXT(
'Core Data for Automotive Mechanical Design Process');
#895=PRODUCT_CONTEXT('part definition',#894,'mechanical');
#896=PRODUCT('2026-08-14-20-11-01-931','BottomCase',$,(#895));
#897=PRESENTATION_STYLE_ASSIGNMENT((#898));
#898=SURFACE_STYLE_USAGE(.BOTH.,#899);
#899=SURFACE_SIDE_STYLE('',(#900));
#900=SURFACE_STYLE_FILL_AREA(#901);
#901=FILL_AREA_STYLE('Steel - Satin',(#902));
#902=FILL_AREA_STYLE_COLOUR('Steel - Satin',#903);
#903=COLOUR_RGB('Steel - Satin',0.627450980392157,0.627450980392157,0.627450980392157);
ENDSEC;
END-ISO-10303-21;
